#!OML:ASF F:\VICON\USERDATA\INSTALL\rory3\rory3.ASF
:FULLY-SPECIFIED
:DEGREES
226
root -7.06418 16.491 -14.0945 372.696 34.4401 7.89485
lowerback -6.75966 -3.60445 0.0814593
upperback -6.68953 -4.73201 -0.0167499
thorax -3.14786 -2.34653 -0.246373
lowerneck -10.2059 -10.7273 -12.1447
upperneck 31.5966 -15.3481 7.5864
head 14.0655 -7.20518 2.62908
rclavicle 3.54831e-014 1.59028e-014
rhumerus -111.273 -55.2255 102.93
rradius 14.6796
rwrist 110.773
rhand -3.65778 5.70679
rfingers 7.12502
rthumb 22.0826 -23.0523
lclavicle 3.54831e-014 1.59028e-014
lhumerus -174.5 -173.475 191.339
lradius 18.3436
lwrist -43.5908
lhand 0.535772 32.7413
lfingers 7.12502
lthumb 26.1034 60.9673
rfemur 139.834 -181.993 -169.893
rtibia 43.1723
rfoot -40.8324 -37.0114
rtoes 37.886
lfemur -15.5421 18.6958 -9.24481
ltibia 54.4589
lfoot 27.5454 20.1237
ltoes -9.41218
227
root -7.10684 16.4862 -13.9207 372.788 32.6172 7.87036
lowerback -6.78553 -3.88325 0.0449933
upperback -6.86513 -5.10858 -0.185515
thorax -3.33403 -2.53946 -0.407142
lowerneck -10.0895 -9.94173 -11.2863
upperneck 31.8032 -14.4206 7.58561
head 13.9211 -6.71666 2.67889
rclavicle -3.06128e-014 -8.74653e-015
rhumerus -119.612 -53.7876 111.423
rradius 15.2988
rwrist 117.804
rhand -4.45988 6.98891
rfingers 7.12502
rthumb 21.3123 -21.8592
lclavicle -3.06128e-014 -8.74653e-015
lhumerus -173.877 -171.475 190.849
lradius 18.576
lwrist -43.1076
lhand -1.16679 32.2925
lfingers 7.12502
lthumb 24.4723 60.7491
rfemur 139.811 -181.008 -168.884
rtibia 43.0166
rfoot -36.4148 -37.1134
rtoes 33.8088
lfemur -16.2254 18.7099 -8.51471
ltibia 54.5962
lfoot 28.2663 20.743
ltoes -9.42598
228
root -7.16669 16.4689 -13.7237 372.608 31.0515 7.39208
lowerback -7.09998 -4.21023 -0.098478
upperback -6.92136 -5.53787 -0.135644
thorax -3.20564 -2.74947 -0.315387
lowerneck -9.49876 -9.23248 -10.6161
upperneck 31.7027 -13.6425 7.78538
head 13.6029 -6.30872 2.82153
rclavicle 6.2816e-014 3.18055e-015
rhumerus -123.436 -52.7182 114.838
rradius 15.6335
rwrist 121.989
rhand -5.34206 8.93859
rfingers 7.12502
rthumb 20.4647 -20.0029
lclavicle 6.2816e-014 3.18055e-015
lhumerus -173.033 -169.925 190.617
lradius 18.7472
lwrist -42.8657
lhand -1.4262 32.1229
lfingers 7.12502
lthumb 24.2236 60.6129
rfemur 140.062 -181.61 -167.771
rtibia 42.8016
rfoot -34.7847 -36.8711
rtoes 31.4146
lfemur -16.8895 18.0958 -7.1961
ltibia 54.597
lfoot 27.5928 21.5188
ltoes -7.079
229
root -7.23185 16.4392 -13.4756 372.585 29.4779 8.11106
lowerback -7.42469 -4.70984 -1.6763
upperback -6.86287 -6.13164 -0.389071
thorax -2.8359 -2.99325 0.229639
lowerneck -9.07449 -8.4847 -9.51663
upperneck 31.9299 -12.7939 7.62223
head 13.3937 -5.85013 2.74765
rclavicle -4.86029e-014 -2.3059e-014
rhumerus -125.465 -51.8662 116.254
rradius 15.9104
rwrist 125.293
rhand -6.21953 10.1837
rfingers 7.12502
rthumb 19.6213 -18.8461
lclavicle -4.86029e-014 -2.3059e-014
lhumerus -172.328 -166.817 189.832
lradius 18.9521
lwrist -42.4538
lhand -1.65996 31.5349
lfingers 7.12502
lthumb 23.9995 60.0546
rfemur 140.883 -182.752 -167.877
rtibia 42.9262
rfoot -35.3888 -35.8865
rtoes 31.3138
lfemur -16.6183 16.6483 -6.82304
ltibia 53.8003
lfoot 28.0722 21.0276
ltoes -8.58812
230
root -7.22577 16.4213 -13.4164 373.798 26.1057 6.72114
lowerback -8.23901 -4.21578 0.5802
upperback -7.67922 -5.5811 -0.385999
thorax -3.47083 -2.81231 -0.999144
lowerneck -9.11153 -7.75098 -8.3816
upperneck 32.1179 -11.8273 7.1484
head 13.2426 -5.35563 2.53392
rclavicle 9.44227e-015 1.11319e-014
rhumerus -127.817 -50.9575 117.995
rradius 16.2413
rwrist 128.444
rhand -6.68802 11.3137
rfingers 7.12502
rthumb 19.1709 -17.7614
lclavicle 9.44227e-015 1.11319e-014
lhumerus -171.689 -164.69 189.484
lradius 19.3389
lwrist -41.8465
lhand -1.42894 31.4664
lfingers 7.12502
lthumb 24.221 59.9567
rfemur 138.014 -180.141 -165.612
rtibia 42.9658
rfoot -28.7613 -33.3416
rtoes 25.8573
lfemur -19.0919 15.9705 -6.50592
ltibia 53.2937
lfoot 25.256 22.6734
ltoes -6.95924
231
root -7.33148 16.3862 -13.2038 372.532 26.301 6.9642
lowerback -7.30462 -5.21921 -0.975508
upperback -7.02224 -6.8563 -0.254805
thorax -3.12492 -3.38422 -0.0293986
lowerneck -9.26066 -7.16241 -7.44016
upperneck 31.9917 -11.0445 6.81307
head 13.0442 -4.94692 2.3627
rclavicle 3.3694e-014 1.59028e-015
rhumerus -127.848 -50.8523 116.962
rradius 16.124
rwrist 129.176
rhand -6.66265 11.3219
rfingers 7.12502
rthumb 19.1952 -17.7508
lclavicle 3.3694e-014 1.59028e-015
lhumerus -170.717 -163.013 189.414
lradius 19.365
lwrist -42.4203
lhand -2.23498 30.3851
lfingers 7.12502
lthumb 23.448 58.9764
rfemur 140.033 -183.032 -165.603
rtibia 43.4033
rfoot -32.8895 -34.3266
rtoes 28.3326
lfemur -18.2983 11.913 -4.99164
ltibia 51.8622
lfoot 23.1421 22.2715
ltoes -8.53843
232
root -7.39285 16.3591 -13.061 372.313 25.0183 6.48479
lowerback -6.9703 -5.51694 -0.970712
upperback -7.1356 -7.26334 -0.111171
thorax -3.40933 -3.58469 0.137467
lowerneck -8.90119 -6.5188 -6.66035
upperneck 31.9244 -10.179 6.47387
head 12.7809 -4.53328 2.24436
rclavicle 5.76476e-015 -1.59028e-015
rhumerus -127.48 -50.7548 115.807
rradius 16.0316
rwrist 130.258
rhand -6.41643 10.4415
rfingers 7.12502
rthumb 19.432 -18.6075
lclavicle 5.76476e-015 -1.59028e-015
lhumerus -169.771 -160.255 189.377
lradius 19.467
lwrist -42.0609
lhand -2.51431 30.0615
lfingers 7.12502
lthumb 23.18 58.6867
rfemur 139.864 -184.182 -164.738
rtibia 43.7172
rfoot -32.5481 -34.3998
rtoes 27.7088
lfemur -18.9173 8.63713 -3.92905
ltibia 50.6998
lfoot 21.343 23.2136
ltoes -10.4482
233
root -7.43682 16.3359 -12.9179 372.222 23.7408 6.1543
lowerback -6.67348 -5.7081 -0.806434
upperback -7.05347 -7.53646 -0.116509
thorax -3.50714 -3.73066 0.0594203
lowerneck -9.6579 -5.99083 -5.72418
upperneck 32.2092 -9.50831 6.15759
head 12.9264 -4.14562 2.04119
rclavicle -1.4064e-014 -1.63003e-014
rhumerus -132.128 -47.6767 120.693
rradius 16.8462
rwrist 135.963
rhand -6.84702 10.9096
rfingers 7.12502
rthumb 19.0179 -18.1806
lclavicle -1.4064e-014 -1.63003e-014
lhumerus -168.305 -157.953 189.488
lradius 19.6089
lwrist -41.3626
lhand -1.66114 30.6906
lfingers 7.12502
lthumb 23.9984 59.2105
rfemur 139.663 -184.606 -163.935
rtibia 44.1623
rfoot -31.5353 -33.9527
rtoes 27.375
lfemur -19.4815 5.10229 -3.06792
ltibia 49.3176
lfoot 10.3165 29.4314
ltoes 10.8143
234
root -7.48669 16.3083 -12.7729 371.99 22.4977 5.63778
lowerback -6.47584 -5.95537 -0.712625
upperback -6.95404 -7.8741 0.0531938
thorax -3.49916 -3.90195 0.184206
lowerneck -9.91087 -5.37506 -5.13624
upperneck 32.3162 -8.72014 6.07812
head 12.9247 -3.73515 2.02086
rclavicle 7.96133e-014 1.55052e-014
rhumerus -131.99 -47.156 119.875
rradius 16.8355
rwrist 137.192
rhand -6.83833 11.3295
rfingers 7.12502
rthumb 19.0263 -17.7599
lclavicle 7.96133e-014 1.55052e-014
lhumerus -167.158 -156.635 190.335
lradius 19.7047
lwrist -41.3701
lhand -0.811596 31.843
lfingers 7.12502
lthumb 24.8128 60.2531
rfemur 139.71 -185.606 -163.057
rtibia 44.4212
rfoot -31.2679 -33.7074
rtoes 27.7419
lfemur -20.2585 1.71885 -1.91325
ltibia 48.2941
lfoot 1.02673 32.0098
ltoes 21.5902
235
root -7.52276 16.2858 -12.6516 372.163 20.8835 4.76181
lowerback -6.63475 -5.97345 -0.108669
upperback -6.98073 -7.91698 0.350724
thorax -3.47785 -3.94417 0.145081
lowerneck -10.0053 -4.90695 -4.72333
upperneck 32.2074 -8.11275 6.03797
head 12.8288 -3.42766 2.0193
rclavicle 3.03147e-014 4.37326e-015
rhumerus -129.68 -47.8829 116.319
rradius 16.32
rwrist 136.106
rhand -5.98591 10.4035
rfingers 7.12502
rthumb 19.8459 -18.6033
lclavicle 3.03147e-014 4.37326e-015
lhumerus -165.98 -154.635 191.012
lradius 19.6343
lwrist -42.0428
lhand -1.09781 31.2276
lfingers 7.12502
lthumb 24.5385 59.6752
rfemur 139.134 -186.667 -161.974
rtibia 44.5598
rfoot -30.5929 -33.3392
rtoes 26.6606
lfemur -21.8025 -1.06636 -0.539933
ltibia 47.6018
lfoot -5.75984 35.4337
ltoes 25.7952
236
root -7.54741 16.2753 -12.5246 372.27 19.62 3.91693
lowerback -6.61053 -5.85941 0.62058
upperback -7.10345 -7.79391 0.438533
thorax -3.70593 -3.91265 -0.139916
lowerneck -9.88164 -4.73592 -3.98401
upperneck 32.2012 -8.01189 5.92637
head 12.751 -3.31606 1.86518
rclavicle -1.93815e-015 -1.35174e-014
rhumerus -131.446 -45.1513 118.544
rradius 16.9374
rwrist 140.074
rhand -5.92896 11.4685
rfingers 7.12502
rthumb 19.9006 -17.5326
lclavicle -1.93815e-015 -1.35174e-014
lhumerus -163.935 -150.987 191.056
lradius 19.8782
lwrist -40.9359
lhand -2.97532 30.051
lfingers 7.12502
lthumb 22.7376 58.7312
rfemur 138.958 -187.401 -160.848
rtibia 44.6187
rfoot -30.2544 -32.8762
rtoes 25.1701
lfemur -23.4781 -3.77545 0.899235
ltibia 47.1518
lfoot -20.0705 31.3241
ltoes 37.0916
237
root -7.57148 16.2664 -12.3971 372.439 18.4302 3.31167
lowerback -6.56902 -5.98039 0.978497
upperback -7.19422 -7.96482 0.725065
thorax -3.8348 -4.0084 -0.0339039
lowerneck -10.1234 -4.37605 -3.60472
upperneck 32.4347 -7.55732 5.80015
head 12.8467 -3.08051 1.81266
rclavicle -7.73769e-014 -1.59028e-014
rhumerus -129.822 -45.1164 116.274
rradius 16.7432
rwrist 140.015
rhand -5.15598 10.3452
rfingers 7.12502
rthumb 20.6435 -18.577
lclavicle -7.73769e-014 -1.59028e-014
lhumerus -162.713 -148.791 192.207
lradius 20.0814
lwrist -40.2847
lhand -6.36104 28.1988
lfingers 7.12502
lthumb 19.4853 57.2425
rfemur 138.904 -188.226 -159.987
rtibia 44.6293
rfoot -29.9306 -32.6059
rtoes 24.49
lfemur -25.2648 -6.19203 2.15294
ltibia 46.8734
lfoot -28.3752 32.3754
ltoes 41.0748
238
root -7.59349 16.2594 -12.2753 372.695 17.0321 2.82097
lowerback -6.78477 -6.0541 1.19374
upperback -7.13007 -8.07145 0.983291
thorax -3.6416 -4.06666 0.0797677
lowerneck -10.1842 -3.98667 -3.21868
upperneck 32.3468 -7.04162 5.68645
head 12.7676 -2.82555 1.77249
rclavicle 6.27166e-014 2.0276e-014
rhumerus -125.565 -46.5034 110.299
rradius 15.9182
rwrist 136.702
rhand -4.31108 10.9724
rfingers 7.12502
rthumb 21.4552 -17.8595
lclavicle 6.27166e-014 2.0276e-014
lhumerus -161.607 -147.89 194.056
lradius 20.0695
lwrist -40.3384
lhand -4.14493 29.8099
lfingers 7.12502
lthumb 21.6148 58.6235
rfemur 138.769 -189.401 -159.443
rtibia 44.6229
rfoot -29.7957 -32.1706
rtoes 25.3559
lfemur -27.1469 -7.94334 3.2008
ltibia 46.6065
lfoot -35.0955 25.3591
ltoes 45.3584
239
root -7.61534 16.2603 -12.1474 372.963 15.5057 2.28636
lowerback -7.01999 -6.03923 1.49902
upperback -7.09909 -8.06518 1.25434
thorax -3.48228 -4.07163 0.16176
lowerneck -10.1808 -3.65225 -2.99659
upperneck 32.187 -6.57718 5.61229
head 12.6592 -2.61034 1.76831
rclavicle -4.01794e-014 -2.66371e-014
rhumerus -122.206 -47.1294 105.521
rradius 15.2691
rwrist 134.253
rhand -4.07015 11.8844
rfingers 7.12502
rthumb 21.6866 -16.921
lclavicle -4.01794e-014 -2.66371e-014
lhumerus -160.595 -146.963 196.125
lradius 19.9625
lwrist -40.4603
lhand -2.76517 30.385
lfingers 7.12502
lthumb 22.9393 59.0403
rfemur 138.613 -191.049 -159.08
rtibia 44.607
rfoot -30.3263 -31.5741
rtoes 27.0208
lfemur -28.9719 -9.1258 4.19256
ltibia 46.2402
lfoot -38.6452 24.9177
ltoes 44.8003
